solid OpenSCAD_Model
  facet normal 0.994522 0.104528 0
    outer loop
      vertex 2.5 0 10
      vertex 2.44537 0.519779 0
      vertex 2.44537 0.519779 10
    endloop
  endfacet
  facet normal 0.994522 0.104528 0
    outer loop
      vertex 2.44537 0.519779 0
      vertex 2.5 0 10
      vertex 2.5 0 0
    endloop
  endfacet
  facet normal 0.951056 0.309017 0
    outer loop
      vertex 2.44537 0.519779 10
      vertex 2.28386 1.01684 0
      vertex 2.28386 1.01684 10
    endloop
  endfacet
  facet normal 0.951056 0.309017 0
    outer loop
      vertex 2.28386 1.01684 0
      vertex 2.44537 0.519779 10
      vertex 2.44537 0.519779 0
    endloop
  endfacet
  facet normal 0.866025 0.5 0
    outer loop
      vertex 2.28386 1.01684 10
      vertex 2.02254 1.46946 0
      vertex 2.02254 1.46946 10
    endloop
  endfacet
  facet normal 0.866025 0.5 0
    outer loop
      vertex 2.02254 1.46946 0
      vertex 2.28386 1.01684 10
      vertex 2.28386 1.01684 0
    endloop
  endfacet
  facet normal 0.743145 0.669131 0
    outer loop
      vertex 2.02254 1.46946 10
      vertex 1.67283 1.85786 0
      vertex 1.67283 1.85786 10
    endloop
  endfacet
  facet normal 0.743145 0.669131 0
    outer loop
      vertex 1.67283 1.85786 0
      vertex 2.02254 1.46946 10
      vertex 2.02254 1.46946 0
    endloop
  endfacet
  facet normal 0.587785 0.809017 -0
    outer loop
      vertex 1.67283 1.85786 0
      vertex 1.25 2.16506 10
      vertex 1.67283 1.85786 10
    endloop
  endfacet
  facet normal 0.587785 0.809017 0
    outer loop
      vertex 1.25 2.16506 10
      vertex 1.67283 1.85786 0
      vertex 1.25 2.16506 0
    endloop
  endfacet
  facet normal 0.406736 0.913546 -0
    outer loop
      vertex 1.25 2.16506 0
      vertex 0.772542 2.37764 10
      vertex 1.25 2.16506 10
    endloop
  endfacet
  facet normal 0.406736 0.913546 0
    outer loop
      vertex 0.772542 2.37764 10
      vertex 1.25 2.16506 0
      vertex 0.772542 2.37764 0
    endloop
  endfacet
  facet normal 0.207912 0.978148 -0
    outer loop
      vertex 0.772542 2.37764 0
      vertex 0.261321 2.4863 10
      vertex 0.772542 2.37764 10
    endloop
  endfacet
  facet normal 0.207912 0.978148 0
    outer loop
      vertex 0.261321 2.4863 10
      vertex 0.772542 2.37764 0
      vertex 0.261321 2.4863 0
    endloop
  endfacet
  facet normal 0 1 -0
    outer loop
      vertex 0.261321 2.4863 0
      vertex -0.261321 2.4863 10
      vertex 0.261321 2.4863 10
    endloop
  endfacet
  facet normal 0 1 0
    outer loop
      vertex -0.261321 2.4863 10
      vertex 0.261321 2.4863 0
      vertex -0.261321 2.4863 0
    endloop
  endfacet
  facet normal -0.207912 0.978148 0
    outer loop
      vertex -0.261321 2.4863 0
      vertex -0.772542 2.37764 10
      vertex -0.261321 2.4863 10
    endloop
  endfacet
  facet normal -0.207912 0.978148 0
    outer loop
      vertex -0.772542 2.37764 10
      vertex -0.261321 2.4863 0
      vertex -0.772542 2.37764 0
    endloop
  endfacet
  facet normal -0.406736 0.913546 0
    outer loop
      vertex -0.772542 2.37764 0
      vertex -1.25 2.16506 10
      vertex -0.772542 2.37764 10
    endloop
  endfacet
  facet normal -0.406736 0.913546 0
    outer loop
      vertex -1.25 2.16506 10
      vertex -0.772542 2.37764 0
      vertex -1.25 2.16506 0
    endloop
  endfacet
  facet normal -0.587785 0.809017 0
    outer loop
      vertex -1.25 2.16506 0
      vertex -1.67283 1.85786 10
      vertex -1.25 2.16506 10
    endloop
  endfacet
  facet normal -0.587785 0.809017 0
    outer loop
      vertex -1.67283 1.85786 10
      vertex -1.25 2.16506 0
      vertex -1.67283 1.85786 0
    endloop
  endfacet
  facet normal -0.743145 0.669131 0
    outer loop
      vertex -2.02254 1.46946 0
      vertex -1.67283 1.85786 10
      vertex -1.67283 1.85786 0
    endloop
  endfacet
  facet normal -0.743145 0.669131 0
    outer loop
      vertex -1.67283 1.85786 10
      vertex -2.02254 1.46946 0
      vertex -2.02254 1.46946 10
    endloop
  endfacet
  facet normal -0.866025 0.5 0
    outer loop
      vertex -2.28386 1.01684 0
      vertex -2.02254 1.46946 10
      vertex -2.02254 1.46946 0
    endloop
  endfacet
  facet normal -0.866025 0.5 0
    outer loop
      vertex -2.02254 1.46946 10
      vertex -2.28386 1.01684 0
      vertex -2.28386 1.01684 10
    endloop
  endfacet
  facet normal -0.951056 0.309017 0
    outer loop
      vertex -2.44537 0.519779 0
      vertex -2.28386 1.01684 10
      vertex -2.28386 1.01684 0
    endloop
  endfacet
  facet normal -0.951056 0.309017 0
    outer loop
      vertex -2.28386 1.01684 10
      vertex -2.44537 0.519779 0
      vertex -2.44537 0.519779 10
    endloop
  endfacet
  facet normal -0.994522 0.104528 0
    outer loop
      vertex -2.5 1.41637e-015 0
      vertex -2.44537 0.519779 10
      vertex -2.44537 0.519779 0
    endloop
  endfacet
  facet normal -0.994522 0.104528 0
    outer loop
      vertex -2.44537 0.519779 10
      vertex -2.5 1.41637e-015 0
      vertex -2.5 1.41637e-015 10
    endloop
  endfacet
  facet normal -0.994522 -0.104528 0
    outer loop
      vertex -2.44537 -0.519779 0
      vertex -2.5 1.41637e-015 10
      vertex -2.5 1.41637e-015 0
    endloop
  endfacet
  facet normal -0.994522 -0.104528 0
    outer loop
      vertex -2.5 1.41637e-015 10
      vertex -2.44537 -0.519779 0
      vertex -2.44537 -0.519779 10
    endloop
  endfacet
  facet normal -0.951056 -0.309017 0
    outer loop
      vertex -2.28386 -1.01684 0
      vertex -2.44537 -0.519779 10
      vertex -2.44537 -0.519779 0
    endloop
  endfacet
  facet normal -0.951056 -0.309017 0
    outer loop
      vertex -2.44537 -0.519779 10
      vertex -2.28386 -1.01684 0
      vertex -2.28386 -1.01684 10
    endloop
  endfacet
  facet normal -0.866025 -0.5 0
    outer loop
      vertex -2.02254 -1.46946 0
      vertex -2.28386 -1.01684 10
      vertex -2.28386 -1.01684 0
    endloop
  endfacet
  facet normal -0.866025 -0.5 0
    outer loop
      vertex -2.28386 -1.01684 10
      vertex -2.02254 -1.46946 0
      vertex -2.02254 -1.46946 10
    endloop
  endfacet
  facet normal -0.743145 -0.669131 0
    outer loop
      vertex -1.67283 -1.85786 0
      vertex -2.02254 -1.46946 10
      vertex -2.02254 -1.46946 0
    endloop
  endfacet
  facet normal -0.743145 -0.669131 0
    outer loop
      vertex -2.02254 -1.46946 10
      vertex -1.67283 -1.85786 0
      vertex -1.67283 -1.85786 10
    endloop
  endfacet
  facet normal -0.587785 -0.809017 0
    outer loop
      vertex -1.67283 -1.85786 0
      vertex -1.25 -2.16506 10
      vertex -1.67283 -1.85786 10
    endloop
  endfacet
  facet normal -0.587785 -0.809017 -0
    outer loop
      vertex -1.25 -2.16506 10
      vertex -1.67283 -1.85786 0
      vertex -1.25 -2.16506 0
    endloop
  endfacet
  facet normal -0.406736 -0.913546 0
    outer loop
      vertex -1.25 -2.16506 0
      vertex -0.772542 -2.37764 10
      vertex -1.25 -2.16506 10
    endloop
  endfacet
  facet normal -0.406736 -0.913546 -0
    outer loop
      vertex -0.772542 -2.37764 10
      vertex -1.25 -2.16506 0
      vertex -0.772542 -2.37764 0
    endloop
  endfacet
  facet normal -0.207912 -0.978148 0
    outer loop
      vertex -0.772542 -2.37764 0
      vertex -0.261321 -2.4863 10
      vertex -0.772542 -2.37764 10
    endloop
  endfacet
  facet normal -0.207912 -0.978148 -0
    outer loop
      vertex -0.261321 -2.4863 10
      vertex -0.772542 -2.37764 0
      vertex -0.261321 -2.4863 0
    endloop
  endfacet
  facet normal 0 -1 0
    outer loop
      vertex -0.261321 -2.4863 0
      vertex 0.261321 -2.4863 10
      vertex -0.261321 -2.4863 10
    endloop
  endfacet
  facet normal 0 -1 -0
    outer loop
      vertex 0.261321 -2.4863 10
      vertex -0.261321 -2.4863 0
      vertex 0.261321 -2.4863 0
    endloop
  endfacet
  facet normal 0.207912 -0.978148 0
    outer loop
      vertex 0.261321 -2.4863 0
      vertex 0.772542 -2.37764 10
      vertex 0.261321 -2.4863 10
    endloop
  endfacet
  facet normal 0.207912 -0.978148 0
    outer loop
      vertex 0.772542 -2.37764 10
      vertex 0.261321 -2.4863 0
      vertex 0.772542 -2.37764 0
    endloop
  endfacet
  facet normal 0.406736 -0.913546 0
    outer loop
      vertex 0.772542 -2.37764 0
      vertex 1.25 -2.16506 10
      vertex 0.772542 -2.37764 10
    endloop
  endfacet
  facet normal 0.406736 -0.913546 0
    outer loop
      vertex 1.25 -2.16506 10
      vertex 0.772542 -2.37764 0
      vertex 1.25 -2.16506 0
    endloop
  endfacet
  facet normal 0.587785 -0.809017 0
    outer loop
      vertex 1.25 -2.16506 0
      vertex 1.67283 -1.85786 10
      vertex 1.25 -2.16506 10
    endloop
  endfacet
  facet normal 0.587785 -0.809017 0
    outer loop
      vertex 1.67283 -1.85786 10
      vertex 1.25 -2.16506 0
      vertex 1.67283 -1.85786 0
    endloop
  endfacet
  facet normal 0.743145 -0.669131 0
    outer loop
      vertex 1.67283 -1.85786 10
      vertex 2.02254 -1.46946 0
      vertex 2.02254 -1.46946 10
    endloop
  endfacet
  facet normal 0.743145 -0.669131 0
    outer loop
      vertex 2.02254 -1.46946 0
      vertex 1.67283 -1.85786 10
      vertex 1.67283 -1.85786 0
    endloop
  endfacet
  facet normal 0.866025 -0.5 0
    outer loop
      vertex 2.02254 -1.46946 10
      vertex 2.28386 -1.01684 0
      vertex 2.28386 -1.01684 10
    endloop
  endfacet
  facet normal 0.866025 -0.5 0
    outer loop
      vertex 2.28386 -1.01684 0
      vertex 2.02254 -1.46946 10
      vertex 2.02254 -1.46946 0
    endloop
  endfacet
  facet normal 0.951056 -0.309017 0
    outer loop
      vertex 2.28386 -1.01684 10
      vertex 2.44537 -0.519779 0
      vertex 2.44537 -0.519779 10
    endloop
  endfacet
  facet normal 0.951056 -0.309017 0
    outer loop
      vertex 2.44537 -0.519779 0
      vertex 2.28386 -1.01684 10
      vertex 2.28386 -1.01684 0
    endloop
  endfacet
  facet normal 0.994522 -0.104528 0
    outer loop
      vertex 2.44537 -0.519779 10
      vertex 2.5 0 0
      vertex 2.5 0 10
    endloop
  endfacet
  facet normal 0.994522 -0.104528 0
    outer loop
      vertex 2.5 0 0
      vertex 2.44537 -0.519779 10
      vertex 2.44537 -0.519779 0
    endloop
  endfacet
  facet normal 0 0 -1
    outer loop
      vertex 2.44537 -0.519779 0
      vertex 2.44537 0.519779 0
      vertex 2.5 0 0
    endloop
  endfacet
  facet normal 0 0 -1
    outer loop
      vertex 2.28386 -1.01684 0
      vertex 2.44537 0.519779 0
      vertex 2.44537 -0.519779 0
    endloop
  endfacet
  facet normal 0 0 -1
    outer loop
      vertex 2.28386 -1.01684 0
      vertex 2.28386 1.01684 0
      vertex 2.44537 0.519779 0
    endloop
  endfacet
  facet normal 0 0 -1
    outer loop
      vertex 2.02254 -1.46946 0
      vertex 2.28386 1.01684 0
      vertex 2.28386 -1.01684 0
    endloop
  endfacet
  facet normal 0 0 -1
    outer loop
      vertex 2.02254 -1.46946 0
      vertex 2.02254 1.46946 0
      vertex 2.28386 1.01684 0
    endloop
  endfacet
  facet normal 0 0 -1
    outer loop
      vertex 1.67283 -1.85786 0
      vertex 2.02254 1.46946 0
      vertex 2.02254 -1.46946 0
    endloop
  endfacet
  facet normal 0 0 -1
    outer loop
      vertex 1.67283 -1.85786 0
      vertex 1.67283 1.85786 0
      vertex 2.02254 1.46946 0
    endloop
  endfacet
  facet normal 0 0 -1
    outer loop
      vertex 1.25 -2.16506 0
      vertex 1.67283 1.85786 0
      vertex 1.67283 -1.85786 0
    endloop
  endfacet
  facet normal 0 0 -1
    outer loop
      vertex 1.25 -2.16506 0
      vertex 1.25 2.16506 0
      vertex 1.67283 1.85786 0
    endloop
  endfacet
  facet normal 0 0 -1
    outer loop
      vertex 0.772542 -2.37764 0
      vertex 1.25 2.16506 0
      vertex 1.25 -2.16506 0
    endloop
  endfacet
  facet normal 0 0 -1
    outer loop
      vertex 0.772542 -2.37764 0
      vertex 0.772542 2.37764 0
      vertex 1.25 2.16506 0
    endloop
  endfacet
  facet normal 0 0 -1
    outer loop
      vertex 0.261321 -2.4863 0
      vertex 0.772542 2.37764 0
      vertex 0.772542 -2.37764 0
    endloop
  endfacet
  facet normal 0 0 -1
    outer loop
      vertex 0.261321 -2.4863 0
      vertex 0.261321 2.4863 0
      vertex 0.772542 2.37764 0
    endloop
  endfacet
  facet normal 0 0 -1
    outer loop
      vertex -0.261321 -2.4863 0
      vertex 0.261321 2.4863 0
      vertex 0.261321 -2.4863 0
    endloop
  endfacet
  facet normal 0 0 -1
    outer loop
      vertex -0.261321 -2.4863 0
      vertex -0.261321 2.4863 0
      vertex 0.261321 2.4863 0
    endloop
  endfacet
  facet normal 0 0 -1
    outer loop
      vertex -0.772542 -2.37764 0
      vertex -0.261321 2.4863 0
      vertex -0.261321 -2.4863 0
    endloop
  endfacet
  facet normal 0 0 -1
    outer loop
      vertex -0.772542 -2.37764 0
      vertex -0.772542 2.37764 0
      vertex -0.261321 2.4863 0
    endloop
  endfacet
  facet normal 0 0 -1
    outer loop
      vertex -1.25 -2.16506 0
      vertex -0.772542 2.37764 0
      vertex -0.772542 -2.37764 0
    endloop
  endfacet
  facet normal 0 0 -1
    outer loop
      vertex -1.25 -2.16506 0
      vertex -1.25 2.16506 0
      vertex -0.772542 2.37764 0
    endloop
  endfacet
  facet normal 0 0 -1
    outer loop
      vertex -1.67283 -1.85786 0
      vertex -1.25 2.16506 0
      vertex -1.25 -2.16506 0
    endloop
  endfacet
  facet normal 0 0 -1
    outer loop
      vertex -1.67283 -1.85786 0
      vertex -1.67283 1.85786 0
      vertex -1.25 2.16506 0
    endloop
  endfacet
  facet normal 0 0 -1
    outer loop
      vertex -2.02254 -1.46946 0
      vertex -1.67283 1.85786 0
      vertex -1.67283 -1.85786 0
    endloop
  endfacet
  facet normal 0 0 -1
    outer loop
      vertex -2.02254 -1.46946 0
      vertex -2.02254 1.46946 0
      vertex -1.67283 1.85786 0
    endloop
  endfacet
  facet normal 0 0 -1
    outer loop
      vertex -2.28386 -1.01684 0
      vertex -2.02254 1.46946 0
      vertex -2.02254 -1.46946 0
    endloop
  endfacet
  facet normal 0 0 -1
    outer loop
      vertex -2.28386 -1.01684 0
      vertex -2.28386 1.01684 0
      vertex -2.02254 1.46946 0
    endloop
  endfacet
  facet normal 0 0 -1
    outer loop
      vertex -2.44537 -0.519779 0
      vertex -2.28386 1.01684 0
      vertex -2.28386 -1.01684 0
    endloop
  endfacet
  facet normal 0 0 -1
    outer loop
      vertex -2.44537 -0.519779 0
      vertex -2.44537 0.519779 0
      vertex -2.28386 1.01684 0
    endloop
  endfacet
  facet normal 0 -0 -1
    outer loop
      vertex -2.44537 0.519779 0
      vertex -2.44537 -0.519779 0
      vertex -2.5 1.41637e-015 0
    endloop
  endfacet
  facet normal 0 0 1
    outer loop
      vertex 2.44537 0.519779 10
      vertex 2.44537 -0.519779 10
      vertex 2.5 0 10
    endloop
  endfacet
  facet normal 0 0 1
    outer loop
      vertex 2.28386 1.01684 10
      vertex 2.44537 -0.519779 10
      vertex 2.44537 0.519779 10
    endloop
  endfacet
  facet normal 0 0 1
    outer loop
      vertex 2.28386 1.01684 10
      vertex 2.28386 -1.01684 10
      vertex 2.44537 -0.519779 10
    endloop
  endfacet
  facet normal 0 0 1
    outer loop
      vertex 2.02254 1.46946 10
      vertex 2.28386 -1.01684 10
      vertex 2.28386 1.01684 10
    endloop
  endfacet
  facet normal 0 0 1
    outer loop
      vertex 2.02254 1.46946 10
      vertex 2.02254 -1.46946 10
      vertex 2.28386 -1.01684 10
    endloop
  endfacet
  facet normal 0 0 1
    outer loop
      vertex 1.67283 1.85786 10
      vertex 2.02254 -1.46946 10
      vertex 2.02254 1.46946 10
    endloop
  endfacet
  facet normal 0 0 1
    outer loop
      vertex 1.67283 1.85786 10
      vertex 1.67283 -1.85786 10
      vertex 2.02254 -1.46946 10
    endloop
  endfacet
  facet normal 0 0 1
    outer loop
      vertex 1.25 2.16506 10
      vertex 1.67283 -1.85786 10
      vertex 1.67283 1.85786 10
    endloop
  endfacet
  facet normal 0 0 1
    outer loop
      vertex 1.25 2.16506 10
      vertex 1.25 -2.16506 10
      vertex 1.67283 -1.85786 10
    endloop
  endfacet
  facet normal 0 0 1
    outer loop
      vertex 0.772542 2.37764 10
      vertex 1.25 -2.16506 10
      vertex 1.25 2.16506 10
    endloop
  endfacet
  facet normal 0 0 1
    outer loop
      vertex 0.772542 2.37764 10
      vertex 0.772542 -2.37764 10
      vertex 1.25 -2.16506 10
    endloop
  endfacet
  facet normal 0 0 1
    outer loop
      vertex 0.261321 2.4863 10
      vertex 0.772542 -2.37764 10
      vertex 0.772542 2.37764 10
    endloop
  endfacet
  facet normal 0 0 1
    outer loop
      vertex 0.261321 2.4863 10
      vertex 0.261321 -2.4863 10
      vertex 0.772542 -2.37764 10
    endloop
  endfacet
  facet normal -0 0 1
    outer loop
      vertex -0.261321 2.4863 10
      vertex 0.261321 -2.4863 10
      vertex 0.261321 2.4863 10
    endloop
  endfacet
  facet normal 0 0 1
    outer loop
      vertex -0.261321 2.4863 10
      vertex -0.261321 -2.4863 10
      vertex 0.261321 -2.4863 10
    endloop
  endfacet
  facet normal -0 0 1
    outer loop
      vertex -0.772542 2.37764 10
      vertex -0.261321 -2.4863 10
      vertex -0.261321 2.4863 10
    endloop
  endfacet
  facet normal 0 0 1
    outer loop
      vertex -0.772542 2.37764 10
      vertex -0.772542 -2.37764 10
      vertex -0.261321 -2.4863 10
    endloop
  endfacet
  facet normal -0 0 1
    outer loop
      vertex -1.25 2.16506 10
      vertex -0.772542 -2.37764 10
      vertex -0.772542 2.37764 10
    endloop
  endfacet
  facet normal 0 0 1
    outer loop
      vertex -1.25 2.16506 10
      vertex -1.25 -2.16506 10
      vertex -0.772542 -2.37764 10
    endloop
  endfacet
  facet normal -0 0 1
    outer loop
      vertex -1.67283 1.85786 10
      vertex -1.25 -2.16506 10
      vertex -1.25 2.16506 10
    endloop
  endfacet
  facet normal 0 0 1
    outer loop
      vertex -1.67283 1.85786 10
      vertex -1.67283 -1.85786 10
      vertex -1.25 -2.16506 10
    endloop
  endfacet
  facet normal -0 0 1
    outer loop
      vertex -2.02254 1.46946 10
      vertex -1.67283 -1.85786 10
      vertex -1.67283 1.85786 10
    endloop
  endfacet
  facet normal 0 0 1
    outer loop
      vertex -2.02254 1.46946 10
      vertex -2.02254 -1.46946 10
      vertex -1.67283 -1.85786 10
    endloop
  endfacet
  facet normal -0 0 1
    outer loop
      vertex -2.28386 1.01684 10
      vertex -2.02254 -1.46946 10
      vertex -2.02254 1.46946 10
    endloop
  endfacet
  facet normal 0 0 1
    outer loop
      vertex -2.28386 1.01684 10
      vertex -2.28386 -1.01684 10
      vertex -2.02254 -1.46946 10
    endloop
  endfacet
  facet normal -0 0 1
    outer loop
      vertex -2.44537 0.519779 10
      vertex -2.28386 -1.01684 10
      vertex -2.28386 1.01684 10
    endloop
  endfacet
  facet normal 0 0 1
    outer loop
      vertex -2.44537 0.519779 10
      vertex -2.44537 -0.519779 10
      vertex -2.28386 -1.01684 10
    endloop
  endfacet
  facet normal 0 -0 1
    outer loop
      vertex -2.44537 -0.519779 10
      vertex -2.44537 0.519779 10
      vertex -2.5 1.41637e-015 10
    endloop
  endfacet
endsolid OpenSCAD_Model
