solid OpenSCAD_Model
  facet normal 0.707107 0.707107 0
    outer loop
      vertex 25 65 -50
      vertex 15 75 -70
      vertex 15 75 -50
    endloop
  endfacet
  facet normal 0.707107 0.707107 0
    outer loop
      vertex 15 75 -70
      vertex 25 65 -50
      vertex 25 65 -70
    endloop
  endfacet
  facet normal 0 1 -0
    outer loop
      vertex 15 75 -70
      vertex -15 75 -50
      vertex 15 75 -50
    endloop
  endfacet
  facet normal 0 1 0
    outer loop
      vertex -15 75 -50
      vertex 15 75 -70
      vertex -15 75 -70
    endloop
  endfacet
  facet normal -0.707107 0.707107 0
    outer loop
      vertex -25 65 -70
      vertex -15 75 -50
      vertex -15 75 -70
    endloop
  endfacet
  facet normal -0.707107 0.707107 0
    outer loop
      vertex -15 75 -50
      vertex -25 65 -70
      vertex -25 65 -50
    endloop
  endfacet
  facet normal 0 0 -1
    outer loop
      vertex 25 -65 -70
      vertex 22 -62.4 -70
      vertex 25 65 -70
    endloop
  endfacet
  facet normal 0 0 -1
    outer loop
      vertex 13.2 -72 -70
      vertex 25 -65 -70
      vertex 15 -75 -70
    endloop
  endfacet
  facet normal -0 0 -1
    outer loop
      vertex 25 -65 -70
      vertex 13.2 -72 -70
      vertex 22 -62.4 -70
    endloop
  endfacet
  facet normal 0 0 -1
    outer loop
      vertex 15 -75 -70
      vertex -13.2 -72 -70
      vertex 13.2 -72 -70
    endloop
  endfacet
  facet normal 0 0 -1
    outer loop
      vertex -15 -75 -70
      vertex -13.2 -72 -70
      vertex 15 -75 -70
    endloop
  endfacet
  facet normal 0 0 -1
    outer loop
      vertex -25 -65 -70
      vertex -13.2 -72 -70
      vertex -15 -75 -70
    endloop
  endfacet
  facet normal -0 0 -1
    outer loop
      vertex -22 -62.4 -70
      vertex -25 -65 -70
      vertex -22 62.4 -70
    endloop
  endfacet
  facet normal 0 0 -1
    outer loop
      vertex -13.2 -72 -70
      vertex -25 -65 -70
      vertex -22 -62.4 -70
    endloop
  endfacet
  facet normal 0 0 -1
    outer loop
      vertex 22 62.4 -70
      vertex 25 65 -70
      vertex 22 -62.4 -70
    endloop
  endfacet
  facet normal 0 0 -1
    outer loop
      vertex 13.2 72 -70
      vertex 25 65 -70
      vertex 22 62.4 -70
    endloop
  endfacet
  facet normal 0 0 -1
    outer loop
      vertex 25 65 -70
      vertex 13.2 72 -70
      vertex 15 75 -70
    endloop
  endfacet
  facet normal 0 0 -1
    outer loop
      vertex -13.2 72 -70
      vertex 15 75 -70
      vertex 13.2 72 -70
    endloop
  endfacet
  facet normal 0 0 -1
    outer loop
      vertex -13.2 72 -70
      vertex -15 75 -70
      vertex 15 75 -70
    endloop
  endfacet
  facet normal 0 0 -1
    outer loop
      vertex -25 65 -70
      vertex -13.2 72 -70
      vertex -22 62.4 -70
    endloop
  endfacet
  facet normal -0 0 -1
    outer loop
      vertex -13.2 72 -70
      vertex -25 65 -70
      vertex -15 75 -70
    endloop
  endfacet
  facet normal 0 0 -1
    outer loop
      vertex -25 65 -70
      vertex -22 62.4 -70
      vertex -25 -65 -70
    endloop
  endfacet
  facet normal 0.707107 -0.707107 0
    outer loop
      vertex 15 -75 -50
      vertex 25 -65 -70
      vertex 25 -65 -50
    endloop
  endfacet
  facet normal 0.707107 -0.707107 0
    outer loop
      vertex 25 -65 -70
      vertex 15 -75 -50
      vertex 15 -75 -70
    endloop
  endfacet
  facet normal 1 -0 0
    outer loop
      vertex 25 -65 -50
      vertex 25 65 -70
      vertex 25 65 -50
    endloop
  endfacet
  facet normal 1 0 0
    outer loop
      vertex 25 65 -70
      vertex 25 -65 -50
      vertex 25 -65 -70
    endloop
  endfacet
  facet normal -1 0 0
    outer loop
      vertex -25 -65 -70
      vertex -25 65 -50
      vertex -25 65 -70
    endloop
  endfacet
  facet normal -1 -0 0
    outer loop
      vertex -25 65 -50
      vertex -25 -65 -70
      vertex -25 -65 -50
    endloop
  endfacet
  facet normal -0.707107 -0.707107 0
    outer loop
      vertex -15 -75 -70
      vertex -25 -65 -50
      vertex -25 -65 -70
    endloop
  endfacet
  facet normal -0.707107 -0.707107 0
    outer loop
      vertex -25 -65 -50
      vertex -15 -75 -70
      vertex -15 -75 -50
    endloop
  endfacet
  facet normal 0 -1 0
    outer loop
      vertex -15 -75 -70
      vertex 15 -75 -50
      vertex -15 -75 -50
    endloop
  endfacet
  facet normal 0 -1 -0
    outer loop
      vertex 15 -75 -50
      vertex -15 -75 -70
      vertex 15 -75 -70
    endloop
  endfacet
  facet normal 0 0 1
    outer loop
      vertex 25 65 -50
      vertex 22 62.4 -50
      vertex 25 -65 -50
    endloop
  endfacet
  facet normal -0 0 1
    outer loop
      vertex 13.2 72 -50
      vertex 25 65 -50
      vertex 15 75 -50
    endloop
  endfacet
  facet normal 0 0 1
    outer loop
      vertex 25 65 -50
      vertex 13.2 72 -50
      vertex 22 62.4 -50
    endloop
  endfacet
  facet normal 0 0 1
    outer loop
      vertex 15 75 -50
      vertex -13.2 72 -50
      vertex 13.2 72 -50
    endloop
  endfacet
  facet normal -0 0 1
    outer loop
      vertex -15 75 -50
      vertex -13.2 72 -50
      vertex 15 75 -50
    endloop
  endfacet
  facet normal 0 0 1
    outer loop
      vertex -25 65 -50
      vertex -13.2 72 -50
      vertex -15 75 -50
    endloop
  endfacet
  facet normal 0 0 1
    outer loop
      vertex -22 62.4 -50
      vertex -25 65 -50
      vertex -22 -62.4 -50
    endloop
  endfacet
  facet normal 0 0 1
    outer loop
      vertex -13.2 72 -50
      vertex -25 65 -50
      vertex -22 62.4 -50
    endloop
  endfacet
  facet normal -0 0 1
    outer loop
      vertex 22 -62.4 -50
      vertex 25 -65 -50
      vertex 22 62.4 -50
    endloop
  endfacet
  facet normal 0 0 1
    outer loop
      vertex 13.2 -72 -50
      vertex 25 -65 -50
      vertex 22 -62.4 -50
    endloop
  endfacet
  facet normal 0 0 1
    outer loop
      vertex 25 -65 -50
      vertex 13.2 -72 -50
      vertex 15 -75 -50
    endloop
  endfacet
  facet normal -0 0 1
    outer loop
      vertex -13.2 -72 -50
      vertex 15 -75 -50
      vertex 13.2 -72 -50
    endloop
  endfacet
  facet normal 0 0 1
    outer loop
      vertex -13.2 -72 -50
      vertex -15 -75 -50
      vertex 15 -75 -50
    endloop
  endfacet
  facet normal -0 0 1
    outer loop
      vertex -25 -65 -50
      vertex -13.2 -72 -50
      vertex -22 -62.4 -50
    endloop
  endfacet
  facet normal 0 0 1
    outer loop
      vertex -13.2 -72 -50
      vertex -25 -65 -50
      vertex -15 -75 -50
    endloop
  endfacet
  facet normal 0 0 1
    outer loop
      vertex -25 -65 -50
      vertex -22 -62.4 -50
      vertex -25 65 -50
    endloop
  endfacet
  facet normal -0.737154 -0.675725 0
    outer loop
      vertex 22 62.4 -70
      vertex 13.2 72 -50
      vertex 13.2 72 -70
    endloop
  endfacet
  facet normal -0.737154 -0.675725 0
    outer loop
      vertex 13.2 72 -50
      vertex 22 62.4 -70
      vertex 22 62.4 -50
    endloop
  endfacet
  facet normal 0 -1 0
    outer loop
      vertex -13.2 72 -70
      vertex 13.2 72 -50
      vertex -13.2 72 -50
    endloop
  endfacet
  facet normal 0 -1 -0
    outer loop
      vertex 13.2 72 -50
      vertex -13.2 72 -70
      vertex 13.2 72 -70
    endloop
  endfacet
  facet normal 0.737154 -0.675725 0
    outer loop
      vertex -22 62.4 -50
      vertex -13.2 72 -70
      vertex -13.2 72 -50
    endloop
  endfacet
  facet normal 0.737154 -0.675725 0
    outer loop
      vertex -13.2 72 -70
      vertex -22 62.4 -50
      vertex -22 62.4 -70
    endloop
  endfacet
  facet normal -0.737154 0.675725 0
    outer loop
      vertex 13.2 -72 -70
      vertex 22 -62.4 -50
      vertex 22 -62.4 -70
    endloop
  endfacet
  facet normal -0.737154 0.675725 0
    outer loop
      vertex 22 -62.4 -50
      vertex 13.2 -72 -70
      vertex 13.2 -72 -50
    endloop
  endfacet
  facet normal -1 0 0
    outer loop
      vertex 22 -62.4 -70
      vertex 22 62.4 -50
      vertex 22 62.4 -70
    endloop
  endfacet
  facet normal -1 -0 0
    outer loop
      vertex 22 62.4 -50
      vertex 22 -62.4 -70
      vertex 22 -62.4 -50
    endloop
  endfacet
  facet normal 1 -0 0
    outer loop
      vertex -22 -62.4 -50
      vertex -22 62.4 -70
      vertex -22 62.4 -50
    endloop
  endfacet
  facet normal 1 0 0
    outer loop
      vertex -22 62.4 -70
      vertex -22 -62.4 -50
      vertex -22 -62.4 -70
    endloop
  endfacet
  facet normal 0.737154 0.675725 0
    outer loop
      vertex -13.2 -72 -50
      vertex -22 -62.4 -70
      vertex -22 -62.4 -50
    endloop
  endfacet
  facet normal 0.737154 0.675725 0
    outer loop
      vertex -22 -62.4 -70
      vertex -13.2 -72 -50
      vertex -13.2 -72 -70
    endloop
  endfacet
  facet normal 0 1 -0
    outer loop
      vertex 13.2 -72 -70
      vertex -13.2 -72 -50
      vertex 13.2 -72 -50
    endloop
  endfacet
  facet normal 0 1 0
    outer loop
      vertex -13.2 -72 -50
      vertex 13.2 -72 -70
      vertex -13.2 -72 -70
    endloop
  endfacet
  facet normal 0.707107 0.707107 0
    outer loop
      vertex 25 65 3
      vertex 15 75 0
      vertex 15 75 3
    endloop
  endfacet
  facet normal 0.707107 0.707107 0
    outer loop
      vertex 15 75 0
      vertex 25 65 3
      vertex 25 65 0
    endloop
  endfacet
  facet normal 0 1 -0
    outer loop
      vertex 15 75 0
      vertex -15 75 3
      vertex 15 75 3
    endloop
  endfacet
  facet normal 0 1 0
    outer loop
      vertex -15 75 3
      vertex 15 75 0
      vertex -15 75 0
    endloop
  endfacet
  facet normal -0.707107 0.707107 0
    outer loop
      vertex -25 65 0
      vertex -15 75 3
      vertex -15 75 0
    endloop
  endfacet
  facet normal -0.707107 0.707107 0
    outer loop
      vertex -15 75 3
      vertex -25 65 0
      vertex -25 65 3
    endloop
  endfacet
  facet normal 0 0 -1
    outer loop
      vertex -25 -65 0
      vertex 25 -65 0
      vertex 15 -75 0
    endloop
  endfacet
  facet normal 0 0 -1
    outer loop
      vertex 25 -65 0
      vertex -25 -65 0
      vertex 25 65 0
    endloop
  endfacet
  facet normal 0 0 -1
    outer loop
      vertex -25 -65 0
      vertex 15 -75 0
      vertex -15 -75 0
    endloop
  endfacet
  facet normal 0 0 -1
    outer loop
      vertex -25 65 0
      vertex 25 65 0
      vertex -25 -65 0
    endloop
  endfacet
  facet normal 0 0 -1
    outer loop
      vertex 25 65 0
      vertex -25 65 0
      vertex 15 75 0
    endloop
  endfacet
  facet normal -0 0 -1
    outer loop
      vertex 15 75 0
      vertex -25 65 0
      vertex -15 75 0
    endloop
  endfacet
  facet normal 0.707107 -0.707107 0
    outer loop
      vertex 15 -75 3
      vertex 25 -65 0
      vertex 25 -65 3
    endloop
  endfacet
  facet normal 0.707107 -0.707107 0
    outer loop
      vertex 25 -65 0
      vertex 15 -75 3
      vertex 15 -75 0
    endloop
  endfacet
  facet normal 1 -0 0
    outer loop
      vertex 25 -65 3
      vertex 25 65 0
      vertex 25 65 3
    endloop
  endfacet
  facet normal 1 0 0
    outer loop
      vertex 25 65 0
      vertex 25 -65 3
      vertex 25 -65 0
    endloop
  endfacet
  facet normal -1 0 0
    outer loop
      vertex -25 -65 0
      vertex -25 65 3
      vertex -25 65 0
    endloop
  endfacet
  facet normal -1 -0 0
    outer loop
      vertex -25 65 3
      vertex -25 -65 0
      vertex -25 -65 3
    endloop
  endfacet
  facet normal -0.707107 -0.707107 0
    outer loop
      vertex -15 -75 0
      vertex -25 -65 3
      vertex -25 -65 0
    endloop
  endfacet
  facet normal -0.707107 -0.707107 0
    outer loop
      vertex -25 -65 3
      vertex -15 -75 0
      vertex -15 -75 3
    endloop
  endfacet
  facet normal 0 -1 0
    outer loop
      vertex -15 -75 0
      vertex 15 -75 3
      vertex -15 -75 3
    endloop
  endfacet
  facet normal 0 -1 -0
    outer loop
      vertex 15 -75 3
      vertex -15 -75 0
      vertex 15 -75 0
    endloop
  endfacet
  facet normal 0 0 1
    outer loop
      vertex -25 65 3
      vertex 25 65 3
      vertex 15 75 3
    endloop
  endfacet
  facet normal 0 0 1
    outer loop
      vertex 25 65 3
      vertex -25 65 3
      vertex 25 -65 3
    endloop
  endfacet
  facet normal 0 0 1
    outer loop
      vertex -25 65 3
      vertex 15 75 3
      vertex -15 75 3
    endloop
  endfacet
  facet normal 0 0 1
    outer loop
      vertex -25 -65 3
      vertex 25 -65 3
      vertex -25 65 3
    endloop
  endfacet
  facet normal 0 0 1
    outer loop
      vertex 25 -65 3
      vertex -25 -65 3
      vertex 15 -75 3
    endloop
  endfacet
  facet normal 0 0 1
    outer loop
      vertex 15 -75 3
      vertex -25 -65 3
      vertex -15 -75 3
    endloop
  endfacet
endsolid OpenSCAD_Model
