solid OpenSCAD_Model
  facet normal 0.707107 0.707107 0
    outer loop
      vertex 25 65 -50
      vertex 15 75 -73
      vertex 15 75 -50
    endloop
  endfacet
  facet normal 0.707107 0.707107 0
    outer loop
      vertex 15 75 -73
      vertex 25 65 -50
      vertex 25 65 -73
    endloop
  endfacet
  facet normal 0 1 -0
    outer loop
      vertex 15 75 -73
      vertex -15 75 -50
      vertex 15 75 -50
    endloop
  endfacet
  facet normal 0 1 0
    outer loop
      vertex -15 75 -50
      vertex 15 75 -73
      vertex -15 75 -73
    endloop
  endfacet
  facet normal -0.707107 0.707107 0
    outer loop
      vertex -25 65 -73
      vertex -15 75 -50
      vertex -15 75 -73
    endloop
  endfacet
  facet normal -0.707107 0.707107 0
    outer loop
      vertex -15 75 -50
      vertex -25 65 -73
      vertex -25 65 -50
    endloop
  endfacet
  facet normal 0 0 1
    outer loop
      vertex -22 62.4 -70
      vertex 22 62.4 -70
      vertex 13.2 72 -70
    endloop
  endfacet
  facet normal 0 0 1
    outer loop
      vertex 22 62.4 -70
      vertex -22 62.4 -70
      vertex 22 -62.4 -70
    endloop
  endfacet
  facet normal 0 0 1
    outer loop
      vertex -22 62.4 -70
      vertex 13.2 72 -70
      vertex -13.2 72 -70
    endloop
  endfacet
  facet normal 0 0 1
    outer loop
      vertex -22 -62.4 -70
      vertex 22 -62.4 -70
      vertex -22 62.4 -70
    endloop
  endfacet
  facet normal 0 0 1
    outer loop
      vertex 22 -62.4 -70
      vertex -22 -62.4 -70
      vertex 13.2 -72 -70
    endloop
  endfacet
  facet normal 0 0 1
    outer loop
      vertex 13.2 -72 -70
      vertex -22 -62.4 -70
      vertex -13.2 -72 -70
    endloop
  endfacet
  facet normal 0.707107 -0.707107 0
    outer loop
      vertex 15 -75 -50
      vertex 25 -65 -73
      vertex 25 -65 -50
    endloop
  endfacet
  facet normal 0.707107 -0.707107 0
    outer loop
      vertex 25 -65 -73
      vertex 15 -75 -50
      vertex 15 -75 -73
    endloop
  endfacet
  facet normal 1 -0 0
    outer loop
      vertex 25 -65 -50
      vertex 25 65 -73
      vertex 25 65 -50
    endloop
  endfacet
  facet normal 1 0 0
    outer loop
      vertex 25 65 -73
      vertex 25 -65 -50
      vertex 25 -65 -73
    endloop
  endfacet
  facet normal -1 0 0
    outer loop
      vertex -25 -65 -73
      vertex -25 65 -50
      vertex -25 65 -73
    endloop
  endfacet
  facet normal -1 -0 0
    outer loop
      vertex -25 65 -50
      vertex -25 -65 -73
      vertex -25 -65 -50
    endloop
  endfacet
  facet normal -0.707107 -0.707107 0
    outer loop
      vertex -15 -75 -73
      vertex -25 -65 -50
      vertex -25 -65 -73
    endloop
  endfacet
  facet normal -0.707107 -0.707107 0
    outer loop
      vertex -25 -65 -50
      vertex -15 -75 -73
      vertex -15 -75 -50
    endloop
  endfacet
  facet normal 0 -1 0
    outer loop
      vertex -15 -75 -73
      vertex 15 -75 -50
      vertex -15 -75 -50
    endloop
  endfacet
  facet normal 0 -1 -0
    outer loop
      vertex 15 -75 -50
      vertex -15 -75 -73
      vertex 15 -75 -73
    endloop
  endfacet
  facet normal 0 0 1
    outer loop
      vertex 25 65 -50
      vertex 22 62.4 -50
      vertex 25 -65 -50
    endloop
  endfacet
  facet normal -0 0 1
    outer loop
      vertex 13.2 72 -50
      vertex 25 65 -50
      vertex 15 75 -50
    endloop
  endfacet
  facet normal 0 0 1
    outer loop
      vertex 25 65 -50
      vertex 13.2 72 -50
      vertex 22 62.4 -50
    endloop
  endfacet
  facet normal 0 0 1
    outer loop
      vertex 15 75 -50
      vertex -13.2 72 -50
      vertex 13.2 72 -50
    endloop
  endfacet
  facet normal -0 0 1
    outer loop
      vertex -15 75 -50
      vertex -13.2 72 -50
      vertex 15 75 -50
    endloop
  endfacet
  facet normal 0 0 1
    outer loop
      vertex -25 65 -50
      vertex -13.2 72 -50
      vertex -15 75 -50
    endloop
  endfacet
  facet normal 0 0 1
    outer loop
      vertex -22 62.4 -50
      vertex -25 65 -50
      vertex -22 -62.4 -50
    endloop
  endfacet
  facet normal 0 0 1
    outer loop
      vertex -13.2 72 -50
      vertex -25 65 -50
      vertex -22 62.4 -50
    endloop
  endfacet
  facet normal -0 0 1
    outer loop
      vertex 22 -62.4 -50
      vertex 25 -65 -50
      vertex 22 62.4 -50
    endloop
  endfacet
  facet normal 0 0 1
    outer loop
      vertex 13.2 -72 -50
      vertex 25 -65 -50
      vertex 22 -62.4 -50
    endloop
  endfacet
  facet normal 0 0 1
    outer loop
      vertex 25 -65 -50
      vertex 13.2 -72 -50
      vertex 15 -75 -50
    endloop
  endfacet
  facet normal -0 0 1
    outer loop
      vertex -13.2 -72 -50
      vertex 15 -75 -50
      vertex 13.2 -72 -50
    endloop
  endfacet
  facet normal 0 0 1
    outer loop
      vertex -13.2 -72 -50
      vertex -15 -75 -50
      vertex 15 -75 -50
    endloop
  endfacet
  facet normal -0 0 1
    outer loop
      vertex -25 -65 -50
      vertex -13.2 -72 -50
      vertex -22 -62.4 -50
    endloop
  endfacet
  facet normal 0 0 1
    outer loop
      vertex -13.2 -72 -50
      vertex -25 -65 -50
      vertex -15 -75 -50
    endloop
  endfacet
  facet normal 0 0 1
    outer loop
      vertex -25 -65 -50
      vertex -22 -62.4 -50
      vertex -25 65 -50
    endloop
  endfacet
  facet normal -0.737154 -0.675725 0
    outer loop
      vertex 22 62.4 -70
      vertex 13.2 72 -50
      vertex 13.2 72 -70
    endloop
  endfacet
  facet normal -0.737154 -0.675725 0
    outer loop
      vertex 13.2 72 -50
      vertex 22 62.4 -70
      vertex 22 62.4 -50
    endloop
  endfacet
  facet normal 0 -1 0
    outer loop
      vertex -13.2 72 -70
      vertex 13.2 72 -50
      vertex -13.2 72 -50
    endloop
  endfacet
  facet normal 0 -1 -0
    outer loop
      vertex 13.2 72 -50
      vertex -13.2 72 -70
      vertex 13.2 72 -70
    endloop
  endfacet
  facet normal 0.737154 -0.675725 0
    outer loop
      vertex -22 62.4 -50
      vertex -13.2 72 -70
      vertex -13.2 72 -50
    endloop
  endfacet
  facet normal 0.737154 -0.675725 0
    outer loop
      vertex -13.2 72 -70
      vertex -22 62.4 -50
      vertex -22 62.4 -70
    endloop
  endfacet
  facet normal -0.737154 0.675725 0
    outer loop
      vertex 13.2 -72 -70
      vertex 22 -62.4 -50
      vertex 22 -62.4 -70
    endloop
  endfacet
  facet normal -0.737154 0.675725 0
    outer loop
      vertex 22 -62.4 -50
      vertex 13.2 -72 -70
      vertex 13.2 -72 -50
    endloop
  endfacet
  facet normal -1 0 0
    outer loop
      vertex 22 -62.4 -70
      vertex 22 62.4 -50
      vertex 22 62.4 -70
    endloop
  endfacet
  facet normal -1 -0 0
    outer loop
      vertex 22 62.4 -50
      vertex 22 -62.4 -70
      vertex 22 -62.4 -50
    endloop
  endfacet
  facet normal 1 -0 0
    outer loop
      vertex -22 -62.4 -50
      vertex -22 62.4 -70
      vertex -22 62.4 -50
    endloop
  endfacet
  facet normal 1 0 0
    outer loop
      vertex -22 62.4 -70
      vertex -22 -62.4 -50
      vertex -22 -62.4 -70
    endloop
  endfacet
  facet normal 0.737154 0.675725 0
    outer loop
      vertex -13.2 -72 -50
      vertex -22 -62.4 -70
      vertex -22 -62.4 -50
    endloop
  endfacet
  facet normal 0.737154 0.675725 0
    outer loop
      vertex -22 -62.4 -70
      vertex -13.2 -72 -50
      vertex -13.2 -72 -70
    endloop
  endfacet
  facet normal 0 1 -0
    outer loop
      vertex 13.2 -72 -70
      vertex -13.2 -72 -50
      vertex 13.2 -72 -50
    endloop
  endfacet
  facet normal 0 1 0
    outer loop
      vertex -13.2 -72 -50
      vertex 13.2 -72 -70
      vertex -13.2 -72 -70
    endloop
  endfacet
  facet normal 0 0 -1
    outer loop
      vertex -25 -65 -73
      vertex 25 -65 -73
      vertex 15 -75 -73
    endloop
  endfacet
  facet normal 0 0 -1
    outer loop
      vertex 25 -65 -73
      vertex -25 -65 -73
      vertex 25 65 -73
    endloop
  endfacet
  facet normal 0 0 -1
    outer loop
      vertex -25 -65 -73
      vertex 15 -75 -73
      vertex -15 -75 -73
    endloop
  endfacet
  facet normal 0 0 -1
    outer loop
      vertex -25 65 -73
      vertex 25 65 -73
      vertex -25 -65 -73
    endloop
  endfacet
  facet normal 0 0 -1
    outer loop
      vertex 25 65 -73
      vertex -25 65 -73
      vertex 15 75 -73
    endloop
  endfacet
  facet normal -0 0 -1
    outer loop
      vertex 15 75 -73
      vertex -25 65 -73
      vertex -15 75 -73
    endloop
  endfacet
  facet normal 0.707107 0.707107 0
    outer loop
      vertex 25 65 3
      vertex 15 75 0
      vertex 15 75 3
    endloop
  endfacet
  facet normal 0.707107 0.707107 0
    outer loop
      vertex 15 75 0
      vertex 25 65 3
      vertex 25 65 0
    endloop
  endfacet
  facet normal 0 1 -0
    outer loop
      vertex 15 75 0
      vertex -15 75 3
      vertex 15 75 3
    endloop
  endfacet
  facet normal 0 1 0
    outer loop
      vertex -15 75 3
      vertex 15 75 0
      vertex -15 75 0
    endloop
  endfacet
  facet normal -0.707107 0.707107 0
    outer loop
      vertex -25 65 0
      vertex -15 75 3
      vertex -15 75 0
    endloop
  endfacet
  facet normal -0.707107 0.707107 0
    outer loop
      vertex -15 75 3
      vertex -25 65 0
      vertex -25 65 3
    endloop
  endfacet
  facet normal 0 0 -1
    outer loop
      vertex -25 -65 0
      vertex 25 -65 0
      vertex 15 -75 0
    endloop
  endfacet
  facet normal 0 0 -1
    outer loop
      vertex 25 -65 0
      vertex -25 -65 0
      vertex 25 65 0
    endloop
  endfacet
  facet normal 0 0 -1
    outer loop
      vertex -25 -65 0
      vertex 15 -75 0
      vertex -15 -75 0
    endloop
  endfacet
  facet normal 0 0 -1
    outer loop
      vertex -25 65 0
      vertex 25 65 0
      vertex -25 -65 0
    endloop
  endfacet
  facet normal 0 0 -1
    outer loop
      vertex 25 65 0
      vertex -25 65 0
      vertex 15 75 0
    endloop
  endfacet
  facet normal -0 0 -1
    outer loop
      vertex 15 75 0
      vertex -25 65 0
      vertex -15 75 0
    endloop
  endfacet
  facet normal 0.707107 -0.707107 0
    outer loop
      vertex 15 -75 3
      vertex 25 -65 0
      vertex 25 -65 3
    endloop
  endfacet
  facet normal 0.707107 -0.707107 0
    outer loop
      vertex 25 -65 0
      vertex 15 -75 3
      vertex 15 -75 0
    endloop
  endfacet
  facet normal 1 -0 0
    outer loop
      vertex 25 -65 3
      vertex 25 65 0
      vertex 25 65 3
    endloop
  endfacet
  facet normal 1 0 0
    outer loop
      vertex 25 65 0
      vertex 25 -65 3
      vertex 25 -65 0
    endloop
  endfacet
  facet normal -1 0 0
    outer loop
      vertex -25 -65 0
      vertex -25 65 3
      vertex -25 65 0
    endloop
  endfacet
  facet normal -1 -0 0
    outer loop
      vertex -25 65 3
      vertex -25 -65 0
      vertex -25 -65 3
    endloop
  endfacet
  facet normal -0.707107 -0.707107 0
    outer loop
      vertex -15 -75 0
      vertex -25 -65 3
      vertex -25 -65 0
    endloop
  endfacet
  facet normal -0.707107 -0.707107 0
    outer loop
      vertex -25 -65 3
      vertex -15 -75 0
      vertex -15 -75 3
    endloop
  endfacet
  facet normal 0 -1 0
    outer loop
      vertex -15 -75 0
      vertex 15 -75 3
      vertex -15 -75 3
    endloop
  endfacet
  facet normal 0 -1 -0
    outer loop
      vertex 15 -75 3
      vertex -15 -75 0
      vertex 15 -75 0
    endloop
  endfacet
  facet normal 0 0 1
    outer loop
      vertex -25 65 3
      vertex 25 65 3
      vertex 15 75 3
    endloop
  endfacet
  facet normal 0 0 1
    outer loop
      vertex 25 65 3
      vertex -25 65 3
      vertex 25 -65 3
    endloop
  endfacet
  facet normal 0 0 1
    outer loop
      vertex -25 65 3
      vertex 15 75 3
      vertex -15 75 3
    endloop
  endfacet
  facet normal 0 0 1
    outer loop
      vertex -25 -65 3
      vertex 25 -65 3
      vertex -25 65 3
    endloop
  endfacet
  facet normal 0 0 1
    outer loop
      vertex 25 -65 3
      vertex -25 -65 3
      vertex 15 -75 3
    endloop
  endfacet
  facet normal 0 0 1
    outer loop
      vertex 15 -75 3
      vertex -25 -65 3
      vertex -15 -75 3
    endloop
  endfacet
  facet normal -0.707107 0.707107 0
    outer loop
      vertex -23.5377 80 0
      vertex -20 83.5377 5
      vertex -20 83.5377 0
    endloop
  endfacet
  facet normal -0.707107 0.707107 0
    outer loop
      vertex -20 83.5377 5
      vertex -23.5377 80 0
      vertex -23.5377 80 5
    endloop
  endfacet
  facet normal 0.707107 -0.707107 0
    outer loop
      vertex -20 76.4623 5
      vertex -16.4623 80 0
      vertex -16.4623 80 5
    endloop
  endfacet
  facet normal 0.707107 -0.707107 0
    outer loop
      vertex -16.4623 80 0
      vertex -20 76.4623 5
      vertex -20 76.4623 0
    endloop
  endfacet
  facet normal 0 0 1
    outer loop
      vertex -20 84.2453 0
      vertex -16.4623 80 0
      vertex -15.7547 80 0
    endloop
  endfacet
  facet normal 0 0 1
    outer loop
      vertex -20 84.2453 0
      vertex -20 83.5377 0
      vertex -16.4623 80 0
    endloop
  endfacet
  facet normal 0 0 1
    outer loop
      vertex -20 84.2453 0
      vertex -23.5377 80 0
      vertex -20 83.5377 0
    endloop
  endfacet
  facet normal 0 -0 1
    outer loop
      vertex -23.5377 80 0
      vertex -20 84.2453 0
      vertex -24.2453 80 0
    endloop
  endfacet
  facet normal 0 0 1
    outer loop
      vertex -20 76.4623 0
      vertex -15.7547 80 0
      vertex -16.4623 80 0
    endloop
  endfacet
  facet normal -0 0 1
    outer loop
      vertex -20 76.4623 0
      vertex -20 75.7547 0
      vertex -15.7547 80 0
    endloop
  endfacet
  facet normal 0 0 1
    outer loop
      vertex -23.5377 80 0
      vertex -20 75.7547 0
      vertex -20 76.4623 0
    endloop
  endfacet
  facet normal 0 0 1
    outer loop
      vertex -20 75.7547 0
      vertex -23.5377 80 0
      vertex -24.2453 80 0
    endloop
  endfacet
  facet normal -0.707107 -0.707107 0
    outer loop
      vertex -20 76.4623 0
      vertex -23.5377 80 5
      vertex -23.5377 80 0
    endloop
  endfacet
  facet normal -0.707107 -0.707107 0
    outer loop
      vertex -23.5377 80 5
      vertex -20 76.4623 0
      vertex -20 76.4623 5
    endloop
  endfacet
  facet normal 0 0 1
    outer loop
      vertex -20 83.5377 5
      vertex -20 76.4623 5
      vertex -16.4623 80 5
    endloop
  endfacet
  facet normal 0 -0 1
    outer loop
      vertex -20 76.4623 5
      vertex -20 83.5377 5
      vertex -23.5377 80 5
    endloop
  endfacet
  facet normal 0.707107 0.707107 0
    outer loop
      vertex -16.4623 80 5
      vertex -20 83.5377 0
      vertex -20 83.5377 5
    endloop
  endfacet
  facet normal 0.707107 0.707107 0
    outer loop
      vertex -20 83.5377 0
      vertex -16.4623 80 5
      vertex -16.4623 80 0
    endloop
  endfacet
  facet normal -0.707107 0.707106 0
    outer loop
      vertex -24.2453 80 -3
      vertex -20 84.2453 0
      vertex -20 84.2453 -3
    endloop
  endfacet
  facet normal -0.707107 0.707106 0
    outer loop
      vertex -20 84.2453 0
      vertex -24.2453 80 -3
      vertex -24.2453 80 0
    endloop
  endfacet
  facet normal 0.707107 -0.707107 0
    outer loop
      vertex -20 75.7547 0
      vertex -15.7547 80 -3
      vertex -15.7547 80 0
    endloop
  endfacet
  facet normal 0.707107 -0.707107 0
    outer loop
      vertex -15.7547 80 -3
      vertex -20 75.7547 0
      vertex -20 75.7547 -3
    endloop
  endfacet
  facet normal 0 0 -1
    outer loop
      vertex -20 75.7547 -3
      vertex -20 84.2453 -3
      vertex -15.7547 80 -3
    endloop
  endfacet
  facet normal 0 -0 -1
    outer loop
      vertex -20 84.2453 -3
      vertex -20 75.7547 -3
      vertex -24.2453 80 -3
    endloop
  endfacet
  facet normal 0.707107 0.707107 0
    outer loop
      vertex -15.7547 80 0
      vertex -20 84.2453 -3
      vertex -20 84.2453 0
    endloop
  endfacet
  facet normal 0.707107 0.707107 0
    outer loop
      vertex -20 84.2453 -3
      vertex -15.7547 80 0
      vertex -15.7547 80 -3
    endloop
  endfacet
  facet normal -0.707107 -0.707106 0
    outer loop
      vertex -20 75.7547 -3
      vertex -24.2453 80 0
      vertex -24.2453 80 -3
    endloop
  endfacet
  facet normal -0.707107 -0.707106 0
    outer loop
      vertex -24.2453 80 0
      vertex -20 75.7547 -3
      vertex -20 75.7547 0
    endloop
  endfacet
  facet normal -0.707107 0.707107 0
    outer loop
      vertex 0 97.0755 0
      vertex -7.07547 90 5
      vertex 0 97.0755 5
    endloop
  endfacet
  facet normal -0.707107 0.707107 0
    outer loop
      vertex -7.07547 90 5
      vertex 0 97.0755 0
      vertex -7.07547 90 0
    endloop
  endfacet
  facet normal 0.707107 -0.707107 0
    outer loop
      vertex 0 82.9245 0
      vertex 7.07547 90 5
      vertex 0 82.9245 5
    endloop
  endfacet
  facet normal 0.707107 -0.707107 0
    outer loop
      vertex 7.07547 90 5
      vertex 0 82.9245 0
      vertex 7.07547 90 0
    endloop
  endfacet
  facet normal 0 0 1
    outer loop
      vertex 0 98.4906 0
      vertex 7.07547 90 0
      vertex 8.49057 90 0
    endloop
  endfacet
  facet normal 0 0 1
    outer loop
      vertex 0 98.4906 0
      vertex 0 97.0755 0
      vertex 7.07547 90 0
    endloop
  endfacet
  facet normal 0 0 1
    outer loop
      vertex 0 98.4906 0
      vertex -7.07547 90 0
      vertex 0 97.0755 0
    endloop
  endfacet
  facet normal 0 -0 1
    outer loop
      vertex -7.07547 90 0
      vertex 0 98.4906 0
      vertex -8.49057 90 0
    endloop
  endfacet
  facet normal 0 0 1
    outer loop
      vertex 0 82.9245 0
      vertex 8.49057 90 0
      vertex 7.07547 90 0
    endloop
  endfacet
  facet normal -0 0 1
    outer loop
      vertex 0 82.9245 0
      vertex 0 81.5094 0
      vertex 8.49057 90 0
    endloop
  endfacet
  facet normal 0 0 1
    outer loop
      vertex -7.07547 90 0
      vertex 0 81.5094 0
      vertex 0 82.9245 0
    endloop
  endfacet
  facet normal 0 0 1
    outer loop
      vertex 0 81.5094 0
      vertex -7.07547 90 0
      vertex -8.49057 90 0
    endloop
  endfacet
  facet normal 0 0 1
    outer loop
      vertex 0 97.0755 5
      vertex 0 82.9245 5
      vertex 7.07547 90 5
    endloop
  endfacet
  facet normal 0 -0 1
    outer loop
      vertex 0 82.9245 5
      vertex 0 97.0755 5
      vertex -7.07547 90 5
    endloop
  endfacet
  facet normal 0.707107 0.707107 -0
    outer loop
      vertex 7.07547 90 0
      vertex 0 97.0755 5
      vertex 7.07547 90 5
    endloop
  endfacet
  facet normal 0.707107 0.707107 0
    outer loop
      vertex 0 97.0755 5
      vertex 7.07547 90 0
      vertex 0 97.0755 0
    endloop
  endfacet
  facet normal -0.707107 -0.707107 0
    outer loop
      vertex -7.07547 90 0
      vertex 0 82.9245 5
      vertex -7.07547 90 5
    endloop
  endfacet
  facet normal -0.707107 -0.707107 -0
    outer loop
      vertex 0 82.9245 5
      vertex -7.07547 90 0
      vertex 0 82.9245 0
    endloop
  endfacet
  facet normal -0.707107 0.707107 0
    outer loop
      vertex 0 98.4906 -3
      vertex -8.49057 90 0
      vertex 0 98.4906 0
    endloop
  endfacet
  facet normal -0.707107 0.707107 0
    outer loop
      vertex -8.49057 90 0
      vertex 0 98.4906 -3
      vertex -8.49057 90 -3
    endloop
  endfacet
  facet normal 0.707107 -0.707107 0
    outer loop
      vertex 0 81.5094 -3
      vertex 8.49057 90 0
      vertex 0 81.5094 0
    endloop
  endfacet
  facet normal 0.707107 -0.707107 0
    outer loop
      vertex 8.49057 90 0
      vertex 0 81.5094 -3
      vertex 8.49057 90 -3
    endloop
  endfacet
  facet normal 0 0 -1
    outer loop
      vertex 0 81.5094 -3
      vertex 0 98.4906 -3
      vertex 8.49057 90 -3
    endloop
  endfacet
  facet normal 0 -0 -1
    outer loop
      vertex 0 98.4906 -3
      vertex 0 81.5094 -3
      vertex -8.49057 90 -3
    endloop
  endfacet
  facet normal 0.707107 0.707107 -0
    outer loop
      vertex 8.49057 90 -3
      vertex 0 98.4906 0
      vertex 8.49057 90 0
    endloop
  endfacet
  facet normal 0.707107 0.707107 0
    outer loop
      vertex 0 98.4906 0
      vertex 8.49057 90 -3
      vertex 0 98.4906 -3
    endloop
  endfacet
  facet normal -0.707107 -0.707107 0
    outer loop
      vertex -8.49057 90 -3
      vertex 0 81.5094 0
      vertex -8.49057 90 0
    endloop
  endfacet
  facet normal -0.707107 -0.707107 -0
    outer loop
      vertex 0 81.5094 0
      vertex -8.49057 90 -3
      vertex 0 81.5094 -3
    endloop
  endfacet
endsolid OpenSCAD_Model
