solid OpenSCAD_Model
  facet normal 0.707107 0.707107 0
    outer loop
      vertex 25 65 -50
      vertex 15 75 -70
      vertex 15 75 -50
    endloop
  endfacet
  facet normal 0.707107 0.707107 0
    outer loop
      vertex 15 75 -70
      vertex 25 65 -50
      vertex 25 65 -70
    endloop
  endfacet
  facet normal 0 1 -0
    outer loop
      vertex 15 75 -70
      vertex -15 75 -50
      vertex 15 75 -50
    endloop
  endfacet
  facet normal 0 1 0
    outer loop
      vertex -15 75 -50
      vertex 15 75 -70
      vertex -15 75 -70
    endloop
  endfacet
  facet normal -0.707107 0.707107 0
    outer loop
      vertex -25 65 -70
      vertex -15 75 -50
      vertex -15 75 -70
    endloop
  endfacet
  facet normal -0.707107 0.707107 0
    outer loop
      vertex -15 75 -50
      vertex -25 65 -70
      vertex -25 65 -50
    endloop
  endfacet
  facet normal 0.707107 -0.707107 0
    outer loop
      vertex 15 -75 -50
      vertex 25 -65 -70
      vertex 25 -65 -50
    endloop
  endfacet
  facet normal 0.707107 -0.707107 0
    outer loop
      vertex 25 -65 -70
      vertex 15 -75 -50
      vertex 15 -75 -70
    endloop
  endfacet
  facet normal 1 -0 0
    outer loop
      vertex 25 -65 -50
      vertex 25 65 -70
      vertex 25 65 -50
    endloop
  endfacet
  facet normal 1 0 0
    outer loop
      vertex 25 65 -70
      vertex 25 -65 -50
      vertex 25 -65 -70
    endloop
  endfacet
  facet normal -1 0 0
    outer loop
      vertex -25 -65 -70
      vertex -25 65 -50
      vertex -25 65 -70
    endloop
  endfacet
  facet normal -1 -0 0
    outer loop
      vertex -25 65 -50
      vertex -25 -65 -70
      vertex -25 -65 -50
    endloop
  endfacet
  facet normal -0.707107 -0.707107 0
    outer loop
      vertex -15 -75 -70
      vertex -25 -65 -50
      vertex -25 -65 -70
    endloop
  endfacet
  facet normal -0.707107 -0.707107 0
    outer loop
      vertex -25 -65 -50
      vertex -15 -75 -70
      vertex -15 -75 -50
    endloop
  endfacet
  facet normal 0 -1 0
    outer loop
      vertex -15 -75 -70
      vertex 15 -75 -50
      vertex -15 -75 -50
    endloop
  endfacet
  facet normal 0 -1 -0
    outer loop
      vertex 15 -75 -50
      vertex -15 -75 -70
      vertex 15 -75 -70
    endloop
  endfacet
  facet normal 0 0 1
    outer loop
      vertex 25 65 -50
      vertex 23.5 63.7 -50
      vertex 25 -65 -50
    endloop
  endfacet
  facet normal -0 0 1
    outer loop
      vertex 14.1 73.5 -50
      vertex 25 65 -50
      vertex 15 75 -50
    endloop
  endfacet
  facet normal 0 0 1
    outer loop
      vertex 25 65 -50
      vertex 14.1 73.5 -50
      vertex 23.5 63.7 -50
    endloop
  endfacet
  facet normal 0 0 1
    outer loop
      vertex 15 75 -50
      vertex -14.1 73.5 -50
      vertex 14.1 73.5 -50
    endloop
  endfacet
  facet normal -0 0 1
    outer loop
      vertex -15 75 -50
      vertex -14.1 73.5 -50
      vertex 15 75 -50
    endloop
  endfacet
  facet normal 0 0 1
    outer loop
      vertex -25 65 -50
      vertex -14.1 73.5 -50
      vertex -15 75 -50
    endloop
  endfacet
  facet normal 0 0 1
    outer loop
      vertex -23.5 63.7 -50
      vertex -25 65 -50
      vertex -23.5 -63.7 -50
    endloop
  endfacet
  facet normal 0 0 1
    outer loop
      vertex -14.1 73.5 -50
      vertex -25 65 -50
      vertex -23.5 63.7 -50
    endloop
  endfacet
  facet normal -0 0 1
    outer loop
      vertex 23.5 -63.7 -50
      vertex 25 -65 -50
      vertex 23.5 63.7 -50
    endloop
  endfacet
  facet normal 0 0 1
    outer loop
      vertex 14.1 -73.5 -50
      vertex 25 -65 -50
      vertex 23.5 -63.7 -50
    endloop
  endfacet
  facet normal 0 0 1
    outer loop
      vertex 25 -65 -50
      vertex 14.1 -73.5 -50
      vertex 15 -75 -50
    endloop
  endfacet
  facet normal -0 0 1
    outer loop
      vertex -14.1 -73.5 -50
      vertex 15 -75 -50
      vertex 14.1 -73.5 -50
    endloop
  endfacet
  facet normal 0 0 1
    outer loop
      vertex -14.1 -73.5 -50
      vertex -15 -75 -50
      vertex 15 -75 -50
    endloop
  endfacet
  facet normal -0 0 1
    outer loop
      vertex -25 -65 -50
      vertex -14.1 -73.5 -50
      vertex -23.5 -63.7 -50
    endloop
  endfacet
  facet normal 0 0 1
    outer loop
      vertex -14.1 -73.5 -50
      vertex -25 -65 -50
      vertex -15 -75 -50
    endloop
  endfacet
  facet normal 0 0 1
    outer loop
      vertex -25 -65 -50
      vertex -23.5 -63.7 -50
      vertex -25 65 -50
    endloop
  endfacet
  facet normal 0 0 -1
    outer loop
      vertex 25 -65 -70
      vertex 23.5 -63.7 -70
      vertex 25 65 -70
    endloop
  endfacet
  facet normal 0 0 -1
    outer loop
      vertex 14.1 -73.5 -70
      vertex 25 -65 -70
      vertex 15 -75 -70
    endloop
  endfacet
  facet normal -0 0 -1
    outer loop
      vertex 25 -65 -70
      vertex 14.1 -73.5 -70
      vertex 23.5 -63.7 -70
    endloop
  endfacet
  facet normal 0 0 -1
    outer loop
      vertex 15 -75 -70
      vertex -14.1 -73.5 -70
      vertex 14.1 -73.5 -70
    endloop
  endfacet
  facet normal 0 0 -1
    outer loop
      vertex -15 -75 -70
      vertex -14.1 -73.5 -70
      vertex 15 -75 -70
    endloop
  endfacet
  facet normal 0 0 -1
    outer loop
      vertex -25 -65 -70
      vertex -14.1 -73.5 -70
      vertex -15 -75 -70
    endloop
  endfacet
  facet normal -0 0 -1
    outer loop
      vertex -23.5 -63.7 -70
      vertex -25 -65 -70
      vertex -23.5 63.7 -70
    endloop
  endfacet
  facet normal 0 0 -1
    outer loop
      vertex -14.1 -73.5 -70
      vertex -25 -65 -70
      vertex -23.5 -63.7 -70
    endloop
  endfacet
  facet normal 0 0 -1
    outer loop
      vertex 23.5 63.7 -70
      vertex 25 65 -70
      vertex 23.5 -63.7 -70
    endloop
  endfacet
  facet normal 0 0 -1
    outer loop
      vertex 14.1 73.5 -70
      vertex 25 65 -70
      vertex 23.5 63.7 -70
    endloop
  endfacet
  facet normal 0 0 -1
    outer loop
      vertex 25 65 -70
      vertex 14.1 73.5 -70
      vertex 15 75 -70
    endloop
  endfacet
  facet normal 0 0 -1
    outer loop
      vertex -14.1 73.5 -70
      vertex 15 75 -70
      vertex 14.1 73.5 -70
    endloop
  endfacet
  facet normal 0 0 -1
    outer loop
      vertex -14.1 73.5 -70
      vertex -15 75 -70
      vertex 15 75 -70
    endloop
  endfacet
  facet normal 0 0 -1
    outer loop
      vertex -25 65 -70
      vertex -14.1 73.5 -70
      vertex -23.5 63.7 -70
    endloop
  endfacet
  facet normal -0 0 -1
    outer loop
      vertex -14.1 73.5 -70
      vertex -25 65 -70
      vertex -15 75 -70
    endloop
  endfacet
  facet normal 0 0 -1
    outer loop
      vertex -25 65 -70
      vertex -23.5 63.7 -70
      vertex -25 -65 -70
    endloop
  endfacet
  facet normal -0.721682 -0.692225 0
    outer loop
      vertex 23.5 63.7 -70
      vertex 14.1 73.5 -50
      vertex 14.1 73.5 -70
    endloop
  endfacet
  facet normal -0.721682 -0.692225 0
    outer loop
      vertex 14.1 73.5 -50
      vertex 23.5 63.7 -70
      vertex 23.5 63.7 -50
    endloop
  endfacet
  facet normal 0 -1 0
    outer loop
      vertex -14.1 73.5 -70
      vertex 14.1 73.5 -50
      vertex -14.1 73.5 -50
    endloop
  endfacet
  facet normal 0 -1 -0
    outer loop
      vertex 14.1 73.5 -50
      vertex -14.1 73.5 -70
      vertex 14.1 73.5 -70
    endloop
  endfacet
  facet normal 0.721682 -0.692225 0
    outer loop
      vertex -23.5 63.7 -50
      vertex -14.1 73.5 -70
      vertex -14.1 73.5 -50
    endloop
  endfacet
  facet normal 0.721682 -0.692225 0
    outer loop
      vertex -14.1 73.5 -70
      vertex -23.5 63.7 -50
      vertex -23.5 63.7 -70
    endloop
  endfacet
  facet normal -0.721682 0.692225 0
    outer loop
      vertex 14.1 -73.5 -70
      vertex 23.5 -63.7 -50
      vertex 23.5 -63.7 -70
    endloop
  endfacet
  facet normal -0.721682 0.692225 0
    outer loop
      vertex 23.5 -63.7 -50
      vertex 14.1 -73.5 -70
      vertex 14.1 -73.5 -50
    endloop
  endfacet
  facet normal -1 0 0
    outer loop
      vertex 23.5 -63.7 -70
      vertex 23.5 63.7 -50
      vertex 23.5 63.7 -70
    endloop
  endfacet
  facet normal -1 -0 0
    outer loop
      vertex 23.5 63.7 -50
      vertex 23.5 -63.7 -70
      vertex 23.5 -63.7 -50
    endloop
  endfacet
  facet normal 1 -0 0
    outer loop
      vertex -23.5 -63.7 -50
      vertex -23.5 63.7 -70
      vertex -23.5 63.7 -50
    endloop
  endfacet
  facet normal 1 0 0
    outer loop
      vertex -23.5 63.7 -70
      vertex -23.5 -63.7 -50
      vertex -23.5 -63.7 -70
    endloop
  endfacet
  facet normal 0.721682 0.692225 0
    outer loop
      vertex -14.1 -73.5 -50
      vertex -23.5 -63.7 -70
      vertex -23.5 -63.7 -50
    endloop
  endfacet
  facet normal 0.721682 0.692225 0
    outer loop
      vertex -23.5 -63.7 -70
      vertex -14.1 -73.5 -50
      vertex -14.1 -73.5 -70
    endloop
  endfacet
  facet normal 0 1 -0
    outer loop
      vertex 14.1 -73.5 -70
      vertex -14.1 -73.5 -50
      vertex 14.1 -73.5 -50
    endloop
  endfacet
  facet normal 0 1 0
    outer loop
      vertex -14.1 -73.5 -50
      vertex 14.1 -73.5 -70
      vertex -14.1 -73.5 -70
    endloop
  endfacet
  facet normal 0.707107 0.707107 0
    outer loop
      vertex 25 65 3
      vertex 15 75 0
      vertex 15 75 3
    endloop
  endfacet
  facet normal 0.707107 0.707107 0
    outer loop
      vertex 15 75 0
      vertex 25 65 3
      vertex 25 65 0
    endloop
  endfacet
  facet normal 0 1 -0
    outer loop
      vertex 15 75 0
      vertex -15 75 3
      vertex 15 75 3
    endloop
  endfacet
  facet normal 0 1 0
    outer loop
      vertex -15 75 3
      vertex 15 75 0
      vertex -15 75 0
    endloop
  endfacet
  facet normal 0.707107 -0.707107 0
    outer loop
      vertex 15 -75 3
      vertex 25 -65 0
      vertex 25 -65 3
    endloop
  endfacet
  facet normal 0.707107 -0.707107 0
    outer loop
      vertex 25 -65 0
      vertex 15 -75 3
      vertex 15 -75 0
    endloop
  endfacet
  facet normal 1 -0 0
    outer loop
      vertex 25 -65 3
      vertex 25 65 0
      vertex 25 65 3
    endloop
  endfacet
  facet normal 1 0 0
    outer loop
      vertex 25 65 0
      vertex 25 -65 3
      vertex 25 -65 0
    endloop
  endfacet
  facet normal -1 0 0
    outer loop
      vertex -25 -65 0
      vertex -25 65 3
      vertex -25 65 0
    endloop
  endfacet
  facet normal -1 -0 0
    outer loop
      vertex -25 65 3
      vertex -25 -65 0
      vertex -25 -65 3
    endloop
  endfacet
  facet normal -0.707107 -0.707107 0
    outer loop
      vertex -15 -75 0
      vertex -25 -65 3
      vertex -25 -65 0
    endloop
  endfacet
  facet normal -0.707107 -0.707107 0
    outer loop
      vertex -25 -65 3
      vertex -15 -75 0
      vertex -15 -75 3
    endloop
  endfacet
  facet normal 0 -1 0
    outer loop
      vertex -15 -75 0
      vertex 15 -75 3
      vertex -15 -75 3
    endloop
  endfacet
  facet normal 0 -1 -0
    outer loop
      vertex 15 -75 3
      vertex -15 -75 0
      vertex 15 -75 0
    endloop
  endfacet
  facet normal 0 0 1
    outer loop
      vertex -25 65 3
      vertex 25 65 3
      vertex 15 75 3
    endloop
  endfacet
  facet normal 0 0 1
    outer loop
      vertex 25 65 3
      vertex -25 65 3
      vertex 25 -65 3
    endloop
  endfacet
  facet normal 0 0 1
    outer loop
      vertex -25 65 3
      vertex 15 75 3
      vertex -15 75 3
    endloop
  endfacet
  facet normal 0 0 1
    outer loop
      vertex -25 -65 3
      vertex 25 -65 3
      vertex -25 65 3
    endloop
  endfacet
  facet normal 0 0 1
    outer loop
      vertex 25 -65 3
      vertex -25 -65 3
      vertex 15 -75 3
    endloop
  endfacet
  facet normal 0 0 1
    outer loop
      vertex 15 -75 3
      vertex -25 -65 3
      vertex -15 -75 3
    endloop
  endfacet
  facet normal -0.707107 0.707107 0
    outer loop
      vertex -25 65 0
      vertex -15 75 3
      vertex -15 75 0
    endloop
  endfacet
  facet normal -0.707107 0.707107 0
    outer loop
      vertex -15 75 3
      vertex -25 65 0
      vertex -25 65 3
    endloop
  endfacet
  facet normal 0 0 -1
    outer loop
      vertex -25 -65 0
      vertex 25 -65 0
      vertex 15 -75 0
    endloop
  endfacet
  facet normal 0 0 -1
    outer loop
      vertex 25 -65 0
      vertex -25 -65 0
      vertex 25 65 0
    endloop
  endfacet
  facet normal 0 0 -1
    outer loop
      vertex -25 -65 0
      vertex 15 -75 0
      vertex -15 -75 0
    endloop
  endfacet
  facet normal 0 0 -1
    outer loop
      vertex -25 65 0
      vertex 25 65 0
      vertex -25 -65 0
    endloop
  endfacet
  facet normal 0 0 -1
    outer loop
      vertex 25 65 0
      vertex -25 65 0
      vertex 15 75 0
    endloop
  endfacet
  facet normal -0 0 -1
    outer loop
      vertex 15 75 0
      vertex -25 65 0
      vertex -15 75 0
    endloop
  endfacet
endsolid OpenSCAD_Model
